<?xml version="1.0" encoding="utf-8"?>
<!-- Generator: Adobe Illustrator 23.0.2, SVG Export Plug-In . SVG Version: 6.00 Build 0)  -->
<svg version="1.1" id="Layer_1" xmlns="http://www.w3.org/2000/svg" xmlns:xlink="http://www.w3.org/1999/xlink" x="0px" y="0px"
	 viewBox="0 0 24 24" style="enable-background:new 0 0 24 24;" xml:space="preserve">
<style type="text/css">
	.st0{fill:#E0E0E0;}
	.st1{fill:none;}
</style>
<path class="st0" d="M12,24L12,24C5.4,24,0,18.6,0,12v0C0,5.4,5.4,0,12,0h0c6.6,0,12,5.4,12,12v0C24,18.6,18.6,24,12,24z"/>
<path d="M18,6H6C5.2,6,4.5,6.7,4.5,7.5l0,9C4.5,17.3,5.2,18,6,18h12c0.8,0,1.5-0.7,1.5-1.5v-9C19.5,6.7,18.8,6,18,6z M18,9l-6,3.8
	L6,9V7.5l6,3.8l6-3.8V9z"/>
<path class="st1" d="M0,0h24v24H0V0z"/>
</svg>
