<?xml version="1.0" encoding="utf-8"?>
<!-- Generator: Adobe Illustrator 23.0.2, SVG Export Plug-In . SVG Version: 6.00 Build 0)  -->
<svg version="1.1" id="Layer_1" xmlns="http://www.w3.org/2000/svg" xmlns:xlink="http://www.w3.org/1999/xlink" x="0px" y="0px"
	 viewBox="0 0 24 24" style="enable-background:new 0 0 24 24;" xml:space="preserve">
<style type="text/css">
	.st0{fill:#FFFFFF;}
	.st1{fill:none;}
</style>
<path d="M12,24L12,24C5.4,24,0,18.6,0,12v0C0,5.4,5.4,0,12,0h0c6.6,0,12,5.4,12,12v0C24,18.6,18.6,24,12,24z"/>
<path class="st0" d="M9.1,17.1H6.8V8.7h2.3V17.1z M7.9,7.8c-0.7,0-1.3-0.6-1.3-1.3s0.6-1.3,1.3-1.3s1.3,0.6,1.3,1.3S8.6,7.8,7.9,7.8
	z M18.2,17.1h-2.3v-4.3c0-2.6-3-2.4-3,0v4.3h-2.3V8.7h2.3v1.3c1.1-2,5.3-2.1,5.3,1.9V17.1z"/>
</svg>
