<?xml version="1.0" encoding="utf-8"?>
<!-- Generator: Adobe Illustrator 23.0.2, SVG Export Plug-In . SVG Version: 6.00 Build 0)  -->
<svg version="1.1" xmlns="http://www.w3.org/2000/svg" xmlns:xlink="http://www.w3.org/1999/xlink" x="0px" y="0px"
	 viewBox="0 0 24 24" style="enable-background:new 0 0 24 24;" xml:space="preserve">
<style type="text/css">
	.st0{fill:#BF923C;}
	.st1{fill:#2E75B6;}
	.st2{fill:#767171;}
	.st3{fill:#C55A11;}
	.st4{fill:#8FAADC;}
	.st5{fill:#548235;}
	.st6{fill:#FFFFFF;}
</style>
<g id="Layer_2">
	<polygon class="st5" points="22.4,18 22.4,6 12,0 1.6,6 1.6,18 12,24 	"/>
</g>
<g id="Layer_1">
	<path class="st6" d="M8.4,11.2c1,1.9,2.5,3.4,4.4,4.4l1.5-1.5c0.2-0.2,0.4-0.2,0.7-0.2c0.7,0.2,1.6,0.4,2.4,0.4
		c0.4,0,0.7,0.3,0.7,0.7v2.3c0,0.4-0.3,0.7-0.7,0.7C11.1,18,6,12.9,6,6.7C6,6.3,6.3,6,6.7,6H9c0.4,0,0.7,0.3,0.7,0.7
		C9.7,7.5,9.8,8.3,10,9c0.1,0.2,0,0.5-0.2,0.7L8.4,11.2z"/>
</g>
</svg>
