<?xml version="1.0" encoding="utf-8"?>
<!-- Generator: Adobe Illustrator 23.0.2, SVG Export Plug-In . SVG Version: 6.00 Build 0)  -->
<svg version="1.1" xmlns="http://www.w3.org/2000/svg" xmlns:xlink="http://www.w3.org/1999/xlink" x="0px" y="0px"
	 viewBox="0 0 24 24" style="enable-background:new 0 0 24 24;" xml:space="preserve">
<style type="text/css">
	.st0{fill:#BF923C;}
	.st1{fill:#2E75B6;}
	.st2{fill:#767171;}
	.st3{fill:#C55A11;}
	.st4{fill:#8FAADC;}
	.st5{fill:#548235;}
	.st6{fill:#FFFFFF;}
</style>
<g id="Layer_2">
	<polygon class="st2" points="22.4,18 22.4,6 12,0 1.6,6 1.6,18 12,24 	"/>
</g>
<g id="Layer_1">
	<path class="st6" d="M8.7,18H6.4V9.6h2.3V18z M7.5,8.7c-0.7,0-1.3-0.6-1.3-1.3S6.8,6,7.5,6s1.3,0.6,1.3,1.3S8.3,8.7,7.5,8.7z
		 M17.8,18h-2.3v-4.3c0-2.6-3-2.4-3,0V18h-2.3V9.6h2.3V11c1.1-2,5.3-2.1,5.3,1.9V18z"/>
</g>
</svg>
