<?xml version="1.0" encoding="utf-8"?>
<!-- Generator: Adobe Illustrator 23.0.2, SVG Export Plug-In . SVG Version: 6.00 Build 0)  -->
<svg version="1.1" xmlns="http://www.w3.org/2000/svg" xmlns:xlink="http://www.w3.org/1999/xlink" x="0px" y="0px"
	 viewBox="0 0 24 24" style="enable-background:new 0 0 24 24;" xml:space="preserve">
<style type="text/css">
	.st0{fill:#CC773D;stroke:#000000;stroke-width:2;stroke-miterlimit:10;}
	.st1{fill:#7030A5;stroke:#000000;stroke-width:2;stroke-miterlimit:10;}
	.st2{fill:#940F08;stroke:#000000;stroke-width:2;stroke-miterlimit:10;}
	.st3{fill:#4E8828;stroke:#000000;stroke-width:2;stroke-miterlimit:10;}
	.st4{fill:#4472C4;stroke:#000000;stroke-width:2;stroke-miterlimit:10;}
	.st5{fill:#FFFFFF;stroke:#000000;stroke-width:2;stroke-miterlimit:10;}
	.st6{stroke:#000000;stroke-width:2;stroke-miterlimit:10;}
	.st7{fill:#4472C4;}
	.st8{fill:#4E8828;}
	.st9{fill:#940F08;}
	.st10{fill:#7030A5;}
	.st11{fill:#CC773D;}
</style>
<g id="Layer_2">
</g>
<g id="Layer_1">
	<path d="M6.6,10.8c1.4,2.8,3.8,5.1,6.6,6.6l2.2-2.2c0.3-0.3,0.7-0.4,1-0.2c1.1,0.4,2.3,0.6,3.6,0.6c0.5,0,1,0.4,1,1V20
		c0,0.5-0.5,1-1,1C10.6,21,3,13.4,3,4c0-0.5,0.5-1,1-1h3.5c0.6,0,1,0.5,1,1c0,1.2,0.2,2.4,0.6,3.6c0.1,0.3,0,0.7-0.2,1L6.6,10.8z"/>
</g>
</svg>
