<?xml version="1.0" encoding="utf-8"?>
<!-- Generator: Adobe Illustrator 23.0.2, SVG Export Plug-In . SVG Version: 6.00 Build 0)  -->
<svg version="1.1" id="Layer_1" xmlns="http://www.w3.org/2000/svg" xmlns:xlink="http://www.w3.org/1999/xlink" x="0px" y="0px"
	 viewBox="0 0 24 24" style="enable-background:new 0 0 24 24;" xml:space="preserve">
<style type="text/css">
	.st0{fill:#D9E3E4;}
	.st1{fill:#D9B289;}
</style>
<path d="M4.8,10.4c1.9,3.8,5,6.9,8.8,8.8l2.9-2.9c0.4-0.4,0.9-0.5,1.4-0.3c1.5,0.5,3.1,0.8,4.8,0.8c0.7,0,1.3,0.6,1.3,1.3v4.7
	c0,0.7-0.6,1.3-1.3,1.3C10.1,24,0,13.9,0,1.3C0,0.6,0.6,0,1.3,0H6c0.7,0,1.3,0.6,1.3,1.3c0,1.7,0.3,3.3,0.8,4.8c0.1,0.5,0,1-0.3,1.4
	L4.8,10.4z"/>
</svg>
